<svg xmlns="http://www.w3.org/2000/svg" xmlns:xlink="http://www.w3.org/1999/xlink" width="517" height="516.173" viewBox="0 0 517 516.173">
  <defs>
    <linearGradient id="linear-gradient" x1="0.5" y1="0.988" x2="0.5" y2="0.048" gradientUnits="objectBoundingBox">
      <stop offset="0" stop-color="#0095ff"/>
      <stop offset="1" stop-color="#15f4c9"/>
    </linearGradient>
  </defs>
  <g id="logo" transform="translate(0.5 0.5)">
    <path id="logo_mark" d="M0,257.59C0,115.326,115.512,0,258,0S516,115.326,516,257.59,400.488,515.173,258,515.173,0,399.847,0,257.59ZM91.865,91.718A234.56,234.56,0,0,0,256.8,492.145a88.637,88.637,0,0,1-11.529-25.269c-8.462-29.094-9.845-60.522-10.216-90.644-.332-27.255,1.167-54.348,2.96-81.418-21,.379-40.477-15.633-55.105-32.093-8.021-9.034,5.232-22.364,13.307-13.284,11.244,12.658,26.335,28.19,43.1,26.3,1.383-20.347,2.728-40.709,3.377-61.14.641-20.138,32.008-20.2,31.366,0-.858,26.9-3.021,53.7-4.837,80.521,18.554,1.236,36.428-4.049,49.217-18.113,8.176-8.979,21.452,4.343,13.307,13.291-16.1,17.7-40.137,25.455-63.706,23.53-1,17.163-1.715,34.357-1.692,51.6.046,28.468.541,57.277,6.777,83.968,3.052,13.052,10.154,33.352,24.311,37.9,21.011,6.754,54.278-10.757,71.256-21.413,19.443-12.194,39.171-26.173,55.445-42.432A234.574,234.574,0,0,0,258,23.013,233.592,233.592,0,0,0,91.865,91.718ZM330.492,316.745l14.489,16.375-9.992-19.528c36.721,7.975,26.088,42.053,26.088,42.053C322.177,352.724,330.492,316.745,330.492,316.745Zm-135.17-2.859-10.417,19.3,14.845-16.058s7.534,36.15-31.42,38.228C168.329,355.36,158.438,321.057,195.322,313.886ZM363.3,303.106l35.06-10.95-36.575,1.878s33.275-52.138,82.383-9.049c0,0-16.034,29.873-46.412,29.87C387.8,314.854,376.289,311.64,363.3,303.106ZM71.835,284.985c49.109-43.089,82.376,9.049,82.376,9.049l-36.567-1.878,35.06,10.95c-12.991,8.536-24.5,11.749-34.46,11.749C87.87,314.853,71.835,284.985,71.835,284.985Zm319.929-42.192,19.643-11.3-21.9,6.074c15.749-35.616,48.127-17.719,48.127-17.719-6.085,21.367-19.331,26.18-30.033,26.179A42.169,42.169,0,0,1,391.764,242.792ZM77.353,219.849s32.378-17.9,48.127,17.719l-21.908-6.074,19.643,11.3a42.122,42.122,0,0,1-15.835,3.236C96.682,246.028,83.437,241.214,77.353,219.849Zm45.276-69.695c76.008,1.592,63.613,72.477,63.613,72.477l-29.921-30.338,21.5,36.938C105.527,217.585,122.629,150.154,122.629,150.154Zm241.563,41-29.913,30.331s-12.4-70.885,63.6-72.477c0,0,17.109,67.431-55.182,79.076ZM260.125,139.351l-4.312,37.788s-47.749-42.973,4.776-85.938c0,0,49.139,37.942,4.776,85.938Zm66.125-5.386-14.319,26.289c-19.273-47.548,27.332-61.774,27.332-61.774C365.908,144.59,318.94,162.9,318.94,162.9ZM180.462,98.48s46.6,14.226,27.34,61.774l-14.327-26.289,7.31,28.932S153.817,144.59,180.462,98.48Z" stroke="rgba(0,0,0,0)" stroke-width="1" fill="url(#linear-gradient)"/>
  </g>
</svg>
