<svg xmlns="http://www.w3.org/2000/svg" xmlns:xlink="http://www.w3.org/1999/xlink" width="209.148" height="61" viewBox="0 0 209.148 61">
  <defs>
    <linearGradient id="linear-gradient" x1="0.496" y1="0.988" x2="0.504" y2="-0.01" gradientUnits="objectBoundingBox">
      <stop offset="0" stop-color="#0193fd"/>
      <stop offset="0.156" stop-color="#0198f6"/>
      <stop offset="0.372" stop-color="#04a8e4"/>
      <stop offset="0.621" stop-color="#07c3c7"/>
      <stop offset="0.643" stop-color="#08c6c5"/>
      <stop offset="0.885" stop-color="#06e5c4"/>
      <stop offset="1" stop-color="#06f6c4"/>
    </linearGradient>
  </defs>
  <g id="logo_header" transform="translate(1141.552 -604.56)">
    <g id="Group_1" data-name="Group 1" transform="translate(-1141.052 605.06)">
      <path id="Path_1" data-name="Path 1" d="M-1111,605.06a30.024,30.024,0,0,0-30.048,30,30.024,30.024,0,0,0,30.048,30,30.024,30.024,0,0,0,30.048-30A30.024,30.024,0,0,0-1111,605.06Zm19.349,49.318a36.93,36.93,0,0,1-6.458,4.942c-1.977,1.241-5.852,3.281-8.3,2.493-1.649-.53-2.477-2.895-2.832-4.414a43.74,43.74,0,0,1-.789-9.779c0-2.009.08-4.011.2-6.01a8.987,8.987,0,0,0,7.42-2.741c.948-1.042-.6-2.594-1.55-1.548a6.891,6.891,0,0,1-5.732,2.11c.212-3.124.463-6.245.563-9.378.075-2.353-3.578-2.346-3.652,0-.076,2.379-.233,4.751-.394,7.121-1.952.22-3.709-1.589-5.019-3.063-.94-1.057-2.484.5-1.549,1.547,1.7,1.917,3.972,3.782,6.418,3.738-.209,3.153-.383,6.308-.345,9.482a39.774,39.774,0,0,0,1.19,10.557,10.334,10.334,0,0,0,1.343,2.943,27.2,27.2,0,0,1-19.21-8,27.119,27.119,0,0,1-8.015-19.318,27.12,27.12,0,0,1,8.015-19.318,27.208,27.208,0,0,1,19.349-8,27.207,27.207,0,0,1,19.349,8,27.12,27.12,0,0,1,8.015,19.318A27.118,27.118,0,0,1-1091.655,654.378Z" transform="translate(1141.052 -605.06)" stroke="rgba(0,0,0,0)" stroke-width="1" fill="url(#linear-gradient)"/>
      <path id="Path_2" data-name="Path 2" d="M-1078.687,628.1c-6.117,5-.556,10.009-.556,10.009l.5-4.4.61,4.4C-1072.964,632.52-1078.687,628.1-1078.687,628.1Z" transform="translate(1109.036 -617.479)" stroke="rgba(0,0,0,0)" stroke-width="1" fill="url(#linear-gradient)"/>
      <path id="Path_3" data-name="Path 3" d="M-1096.658,629.937c-3.1,5.371,2.368,7.5,2.368,7.5l-.852-3.37,1.668,3.062C-1091.23,631.595-1096.658,629.937-1096.658,629.937Z" transform="translate(1117.675 -618.468)" stroke="rgba(0,0,0,0)" stroke-width="1" fill="url(#linear-gradient)"/>
      <path id="Path_4" data-name="Path 4" d="M-1059.846,629.937s-5.428,1.658-3.184,7.195l1.668-3.062-.852,3.37S-1056.743,635.308-1059.846,629.937Z" transform="translate(1099.359 -618.468)" stroke="rgba(0,0,0,0)" stroke-width="1" fill="url(#linear-gradient)"/>
      <path id="Path_5" data-name="Path 5" d="M-1042.835,662.043l2.551-.708-2.288,1.316a3.725,3.725,0,0,0,5.342-2.672A3.873,3.873,0,0,0-1042.835,662.043Z" transform="translate(1088.199 -634.375)" stroke="rgba(0,0,0,0)" stroke-width="1" fill="url(#linear-gradient)"/>
      <path id="Path_6" data-name="Path 6" d="M-1116.205,662.652l-2.288-1.316,2.551.708a3.872,3.872,0,0,0-5.6-2.064A3.725,3.725,0,0,0-1116.205,662.652Z" transform="translate(1130.556 -634.375)" stroke="rgba(0,0,0,0)" stroke-width="1" fill="url(#linear-gradient)"/>
      <path id="Path_7" data-name="Path 7" d="M-1057.292,684.273l1.163,2.274-1.687-1.907a3.6,3.6,0,0,0,3.562,4.531A3.737,3.737,0,0,0-1057.292,684.273Z" transform="translate(1096.307 -647.75)" stroke="rgba(0,0,0,0)" stroke-width="1" fill="url(#linear-gradient)"/>
      <path id="Path_8" data-name="Path 8" d="M-1098.77,689.177a3.6,3.6,0,0,0,3.659-4.452l-1.729,1.87,1.213-2.248A3.736,3.736,0,0,0-1098.77,689.177Z" transform="translate(1118.374 -647.79)" stroke="rgba(0,0,0,0)" stroke-width="1" fill="url(#linear-gradient)"/>
      <path id="Path_9" data-name="Path 9" d="M-1053.378,647.614l-2.5,4.3c8.42-1.357,6.427-9.21,6.427-9.21-8.852.185-7.407,8.441-7.407,8.441Z" transform="translate(1095.794 -625.351)" stroke="rgba(0,0,0,0)" stroke-width="1" fill="url(#linear-gradient)"/>
      <path id="Path_10" data-name="Path 10" d="M-1049.823,675.78l4.259-.219-4.083,1.275c6.125,4.025,9.419-2.11,9.419-2.11C-1045.948,669.708-1049.823,675.78-1049.823,675.78Z" transform="translate(1091.959 -641.535)" stroke="rgba(0,0,0,0)" stroke-width="1" fill="url(#linear-gradient)"/>
      <path id="Path_11" data-name="Path 11" d="M-1122.939,674.726s3.293,6.135,9.418,2.11l-4.083-1.275,4.259.219S-1117.219,669.708-1122.939,674.726Z" transform="translate(1131.305 -641.535)" stroke="rgba(0,0,0,0)" stroke-width="1" fill="url(#linear-gradient)"/>
      <path id="Path_12" data-name="Path 12" d="M-1110.37,642.994s-1.992,7.853,6.427,9.21l-2.5-4.3,3.484,3.533S-1101.517,643.18-1110.37,642.994Z" transform="translate(1124.652 -625.506)" stroke="rgba(0,0,0,0)" stroke-width="1" fill="url(#linear-gradient)"/>
    </g>
    <g id="Group_3" data-name="Group 3" transform="translate(-1065.393 618.702)">
      <g id="Group_2" data-name="Group 2" transform="translate(0 0)">
        <path id="Path_13" data-name="Path 13" d="M-956.874,639.476c.209-.21.537-.276.537-.568v-1.855a1.628,1.628,0,0,0-.537-.878,1.759,1.759,0,0,0-.993-.427h-17.442a1.34,1.34,0,0,0-.831.424,1.4,1.4,0,0,0-.379.88v1.855c0,.292.169.358.381.571s.539.113.83.113h6.478V657.84a.939.939,0,0,0,.313.712,1.011,1.011,0,0,0,.769.261h2.323a1.419,1.419,0,0,0,.926-.258c.211-.21.476-.422.476-.715V639.592h6.158C-957.575,639.592-957.085,639.687-956.874,639.476Z" transform="translate(976.519 -635.265)" fill="#078bfb"/>
        <path id="Path_14" data-name="Path 14" d="M-931.1,655.929a8.149,8.149,0,0,0-3.95-.979,7.965,7.965,0,0,0-3.943.988,7.484,7.484,0,0,0-2.847,2.7,7.091,7.091,0,0,0-1.041,3.723,6.982,6.982,0,0,0,1.058,3.732,7.55,7.55,0,0,0,2.865,2.73,8.038,8.038,0,0,0,3.908.988,7.928,7.928,0,0,0,3.949-1.009,7.686,7.686,0,0,0,2.848-2.715,7.044,7.044,0,0,0,1.052-3.726,7.138,7.138,0,0,0-1.044-3.736A7.541,7.541,0,0,0-931.1,655.929Zm-3.95,10.17a3.551,3.551,0,0,1-1.854-.479,3.156,3.156,0,0,1-1.244-1.281,4.045,4.045,0,0,1-.462-1.973,4,4,0,0,1,.473-1.978,3.045,3.045,0,0,1,1.228-1.264,3.74,3.74,0,0,1,1.876-.456,3.647,3.647,0,0,1,1.854.462,3.1,3.1,0,0,1,1.233,1.276,4.124,4.124,0,0,1,.455,1.961,4.086,4.086,0,0,1-.453,1.939,3.3,3.3,0,0,1-1.262,1.321A3.548,3.548,0,0,1-935.049,666.1Z" transform="translate(958.417 -645.598)" fill="#078bfb"/>
        <path id="Path_15" data-name="Path 15" d="M-893.071,655.092v-18.95a1.675,1.675,0,0,0-.463-.953,1.647,1.647,0,0,0-.935-.484h-.052c-.044,0-.908-.007-.952,0h-.48a1.445,1.445,0,0,0-1.441,1.442v8.924c0-.157-.624-.293-.891-.409a7.016,7.016,0,0,0-4.638-.29,6.78,6.78,0,0,0-1.719.727,6.984,6.984,0,0,0-2.518,2.678,7.745,7.745,0,0,0-.9,3.692,7.408,7.408,0,0,0,1.943,5.173,6.586,6.586,0,0,0,2.195,1.638,6.453,6.453,0,0,0,2.7.57,6.854,6.854,0,0,0,2.9-.633,6.289,6.289,0,0,0,1.325-.823,3.138,3.138,0,0,0,2.74,1.3,3.81,3.81,0,0,0,2.288-.807c.034-.025.023-.053.053-.082a1,1,0,0,0,.291-.77v-.584a1.1,1.1,0,0,0-.32-.8,1.019,1.019,0,0,0-.915-.29A.2.2,0,0,1-893.071,655.092Zm-4.324-1.7a4.171,4.171,0,0,1-3.472,1.776,2.655,2.655,0,0,1-1.464-.407,2.721,2.721,0,0,1-1.03-1.2,4.949,4.949,0,0,1-.408-2.052,4.817,4.817,0,0,1,.4-2.066,2.9,2.9,0,0,1,1.009-1.227,2.442,2.442,0,0,1,1.4-.406,4.511,4.511,0,0,1,2.217.527c.538.314,1.357.7,1.357,1.19Z" transform="translate(939.683 -634.701)" fill="#078bfb"/>
        <path id="Path_16" data-name="Path 16" d="M-859.665,655.929a8.148,8.148,0,0,0-3.95-.979,7.966,7.966,0,0,0-3.943.988,7.483,7.483,0,0,0-2.847,2.7,7.087,7.087,0,0,0-1.041,3.723,6.978,6.978,0,0,0,1.059,3.732,7.55,7.55,0,0,0,2.865,2.73,8.038,8.038,0,0,0,3.908.988,7.928,7.928,0,0,0,3.949-1.009,7.686,7.686,0,0,0,2.848-2.715,7.044,7.044,0,0,0,1.052-3.726,7.139,7.139,0,0,0-1.044-3.736A7.541,7.541,0,0,0-859.665,655.929Zm-3.95,10.17a3.553,3.553,0,0,1-1.854-.479,3.159,3.159,0,0,1-1.244-1.281,4.045,4.045,0,0,1-.461-1.973,3.991,3.991,0,0,1,.473-1.978,3.043,3.043,0,0,1,1.228-1.264,3.741,3.741,0,0,1,1.876-.456,3.648,3.648,0,0,1,1.854.462,3.1,3.1,0,0,1,1.233,1.276,4.124,4.124,0,0,1,.455,1.961,4.085,4.085,0,0,1-.453,1.939,3.3,3.3,0,0,1-1.262,1.321A3.548,3.548,0,0,1-863.615,666.1Z" transform="translate(919.976 -645.598)" fill="#078bfb"/>
        <path id="Path_17" data-name="Path 17" d="M-823.971,646.07A15.354,15.354,0,0,0-828,644.454c-3.66-.915-3.66-2.389-3.66-2.874a2.2,2.2,0,0,1,.361-1.248,2.258,2.258,0,0,1,1-.815,4.008,4.008,0,0,1,1.641-.317A8.133,8.133,0,0,1-824,640.675a1.147,1.147,0,0,0,.678.207,1.123,1.123,0,0,0,.7-.237,1.1,1.1,0,0,0,.4-.635l.484-1.728a1.1,1.1,0,0,0-.307-1.059.911.911,0,0,0-.092-.08,9.622,9.622,0,0,0-2.8-1.4,10.883,10.883,0,0,0-3.373-.536,9.5,9.5,0,0,0-3.963.79,6.559,6.559,0,0,0-2.746,2.281,5.836,5.836,0,0,0-.983,3.3c0,3.477,2.181,5.833,6.482,7a14.525,14.525,0,0,1,2.9,1.053,3.126,3.126,0,0,1,1.223,1.069,2.96,2.96,0,0,1,.35,1.52,2.643,2.643,0,0,1-.422,1.5,2.969,2.969,0,0,1-1.259,1.021,4.7,4.7,0,0,1-1.949.384,7.66,7.66,0,0,1-5.439-2.234,1.193,1.193,0,0,0-.855-.367,1.114,1.114,0,0,0-1.118.918l-.465,1.911c-.006.027-.012.054-.016.08a1.1,1.1,0,0,0,.23.856c.016.02.033.039.05.058a6.285,6.285,0,0,0,1.144.948,11.471,11.471,0,0,0,6.5,1.824,9.157,9.157,0,0,0,3.988-.863,6.966,6.966,0,0,0,2.9-2.523,6.806,6.806,0,0,0,1.062-3.752,7.028,7.028,0,0,0-.819-3.448A6.873,6.873,0,0,0-823.971,646.07Z" transform="translate(901.215 -634.972)" fill="#078bfb"/>
        <path id="Path_18" data-name="Path 18" d="M-765.15,655.1a6.547,6.547,0,0,0-2.992.893,6.768,6.768,0,0,0-.837.573l-.023-.235a1.113,1.113,0,0,0-1.081-1.041h-.07c-.051,0-.1.073-.154.083l-1.692.349c-.241.048-.314.189-.476.375s-.13.469-.13.731v11.425c0,.293-.025.5.184.713a.743.743,0,0,0,.638.26h2.081a1.447,1.447,0,0,0,.935-.258c.211-.21.486-.422.486-.715v-6.779a1.507,1.507,0,0,1,.223-1.079,2.387,2.387,0,0,1,.974-.77,3.561,3.561,0,0,1,1.339-.306,2.9,2.9,0,0,1,.5.045,1.126,1.126,0,0,0,.881-.244,1.107,1.107,0,0,0,.411-.87v-2.029a1.135,1.135,0,0,0-.341-.8A1.147,1.147,0,0,0-765.15,655.1Z" transform="translate(866.791 -645.679)" fill="#078bfb"/>
        <path id="Path_19" data-name="Path 19" d="M-738.18,655.516h-1.942a1.172,1.172,0,0,0-1,.795l-2.987,7.2-3-7.206a1.152,1.152,0,0,0-1.016-.789h-1.924a1.313,1.313,0,0,0-.823.472,1.3,1.3,0,0,0-.334.874,1.139,1.139,0,0,0,.025.24l.035.156a.913.913,0,0,0,.048.146l5.149,11.6a1.278,1.278,0,0,0,.5.678c.164.083.339.249.517.249h1.647c.178,0,.351-.164.516-.247a1.137,1.137,0,0,0,.5-.614l5.15-11.628a.979.979,0,0,0,.047-.153l.035-.146a.878.878,0,0,0,.025-.209,1.486,1.486,0,0,0-.335-.946A1.315,1.315,0,0,0-738.18,655.516Z" transform="translate(855.276 -645.902)" fill="#078bfb"/>
        <path id="Path_20" data-name="Path 20" d="M-705.452,655.987a1.313,1.313,0,0,0-.821-.471h-1.942a1.173,1.173,0,0,0-1,.795l-2.987,7.2-3.011-7.226a1.152,1.152,0,0,0-1.007-.768h-1.907a1.342,1.342,0,0,0-.8.445,1.27,1.27,0,0,0-.37.9,1.149,1.149,0,0,0,.025.239l.035.156a.966.966,0,0,0,.048.147l4.789,10.758-3.975,9.023a.815.815,0,0,0-.047.136l-.035.14a.853.853,0,0,0-.025.206,1.452,1.452,0,0,0,.334.933,1.3,1.3,0,0,0,.823.462h1.959c.178,0,.351-.169.518-.252a1.138,1.138,0,0,0,.5-.618l9.138-20.749a1,1,0,0,0,.047-.152l.035-.146a1.558,1.558,0,0,0,.025-.278A1.311,1.311,0,0,0-705.452,655.987Z" transform="translate(838.106 -645.902)" fill="#078bfb"/>
        <path id="Path_21" data-name="Path 21" d="M-789.224,661.214a1.191,1.191,0,0,0,.686-.964v-.035c0-.04-.1-.08-.1-.12a6.019,6.019,0,0,0-.347-1.242,5.419,5.419,0,0,0-2.128-2.7,5.937,5.937,0,0,0-3.351-.983,6.632,6.632,0,0,0-2.381.434,6.741,6.741,0,0,0-3.273,2.5,6.761,6.761,0,0,0-1.2,3.922,8.331,8.331,0,0,0,.519,2.821,7.318,7.318,0,0,0,3.631,4.267,6.751,6.751,0,0,0,2.969.691,7.921,7.921,0,0,0,2.59-.445,9.495,9.495,0,0,0,2.331-1.18c.041-.029.228-.06.263-.1a1.31,1.31,0,0,0,.482-.788v-1.491a1.394,1.394,0,0,0-.467-.848,1.328,1.328,0,0,0-1.707-.109,6.119,6.119,0,0,1-1.516.788,3.975,3.975,0,0,1-1.854.251,2.976,2.976,0,0,1-2.592-1.99l7.286-2.638A1.4,1.4,0,0,0-789.224,661.214Zm-8.01-.3a4.287,4.287,0,0,1,.9-1.782c1.445-1.564,3.551.1,3.551.1Z" transform="translate(882.241 -645.719)" fill="#078bfb"/>
      </g>
    </g>
  </g>
</svg>
